<svg xmlns="http://www.w3.org/2000/svg">
    <symbol id="advantages_item-Headset" viewBox="0 0 76 92">
        <path
                d="M67.1667 54.3333V71H58.8333V54.3333H67.1667ZM17.1667 54.3333V71H13C10.7083 71 8.83333 69.125 8.83333 66.8333V54.3333H17.1667ZM38 0.166626C17.2917 0.166626 0.5 16.9583 0.5 37.6666V66.8333C0.5 73.75 6.08333 79.3333 13 79.3333H25.5V46H8.83333V37.6666C8.83333 21.5416 21.875 8.49996 38 8.49996C54.125 8.49996 67.1667 21.5416 67.1667 37.6666V46H50.5V79.3333H67.1667V83.5H38V91.8333H63C69.9167 91.8333 75.5 86.25 75.5 79.3333V37.6666C75.5 16.9583 58.7083 0.166626 38 0.166626Z"
                fill="#3077C6"
        />
    </symbol>
    <symbol id="advantages_item-Forum" viewBox="0 0 100 100">
        <path
                d="M62.5 16.6667V45.8334H21.5417L16.6667 50.7084V16.6667H62.5ZM66.6667 8.33337H12.5C10.2083 8.33337 8.33333 10.2084 8.33333 12.5V70.8334L25 54.1667H66.6667C68.9583 54.1667 70.8333 52.2917 70.8333 50V12.5C70.8333 10.2084 68.9583 8.33337 66.6667 8.33337ZM87.5 25H79.1667V62.5H25V70.8334C25 73.125 26.875 75 29.1667 75H75L91.6667 91.6667V29.1667C91.6667 26.875 89.7917 25 87.5 25Z"
                fill="#3077C6"
        />
    </symbol>
    <symbol id="advantages_item-Devices" viewBox="0 0 100 100">
        <path
                d="M16.6667 25H91.6667V16.6666H16.6667C12.0833 16.6666 8.33333 20.4166 8.33333 25V70.8333H0V83.3333H58.3333V70.8333H16.6667V25ZM95.8333 33.3333H70.8333C68.5417 33.3333 66.6667 35.2083 66.6667 37.5V79.1666C66.6667 81.4583 68.5417 83.3333 70.8333 83.3333H95.8333C98.125 83.3333 100 81.4583 100 79.1666V37.5C100 35.2083 98.125 33.3333 95.8333 33.3333ZM91.6667 70.8333H75V41.6666H91.6667V70.8333Z"
                fill="#3077C6"
        />
    </symbol>
    <symbol id="advantages_item-Like" viewBox="0 0 100 100">
        <path
                d="M87.5 33.3333H61.2083L65.1667 14.2916L65.2917 12.9583C65.2917 11.25 64.5833 9.66663 63.4583 8.54163L59.0417 4.16663L31.625 31.625C30.0833 33.125 29.1667 35.2083 29.1667 37.5V79.1666C29.1667 83.75 32.9167 87.5 37.5 87.5H75C78.4583 87.5 81.4167 85.4166 82.6667 82.4166L95.25 53.0416C95.625 52.0833 95.8333 51.0833 95.8333 50V41.6666C95.8333 37.0833 92.0833 33.3333 87.5 33.3333ZM87.5 50L75 79.1666H37.5V37.5L55.5833 19.4166L50.9583 41.6666H87.5V50ZM4.16666 37.5H20.8333V87.5H4.16666V37.5Z"
                fill="#3077C6"
        />
    </symbol>
</svg>